<?xml version="1.0" encoding="iso-8859-1"?>
<!-- Uploaded to: SVG Repo, www.svgrepo.com, Generator: SVG Repo Mixer Tools -->
<svg version="1.1" id="Layer_1" xmlns="http://www.w3.org/2000/svg" xmlns:xlink="http://www.w3.org/1999/xlink" 
	 viewBox="0 0 512 512" xml:space="preserve">
<polygon style="fill:#EDEDED;" points="197.938,245.443 197.938,182.103 229.608,192.66 229.608,245.443 "/>
<path style="fill:#F6E27D;" d="M303.505,224.33c-84.454,0-147.794,23.632-147.794,52.783v63.34h158.351V224.33H303.505z"/>
<path style="fill:#EFC27B;" d="M314.062,224.33h-10.557c-18.797,0-36.544,1.173-52.783,3.315v112.809h63.34V224.33z"/>
<polygon style="fill:#D1E5F5;" points="430.186,129.32 461.856,256 303.505,329.897 303.505,118.763 "/>
<path style="fill:#F6E27D;" d="M398.515,87.093c23.321,0,42.227,18.906,42.227,42.227H292.948V87.093H398.515z"/>
<polygon style="fill:#B4D8F1;" points="461.856,256 430.186,129.32 303.505,256 303.505,340.454 "/>
<polygon style="fill:#EFC27B;" points="482.969,256 356.289,256 335.175,319.34 335.175,340.454 482.969,340.454 "/>
<g>
	<rect x="377.402" y="298.227" style="fill:#58575D;" width="63.34" height="63.34"/>
	<rect x="155.711" y="329.897" style="fill:#58575D;" width="95.01" height="52.784"/>
</g>
<circle style="fill:#88888F;" cx="192.66" cy="377.402" r="47.505"/>
<path style="fill:#EDEDED;" d="M192.66,390.598c-7.277,0-13.196-5.919-13.196-13.196s5.919-13.196,13.196-13.196
	c7.277,0,13.196,5.919,13.196,13.196S199.937,390.598,192.66,390.598z"/>
<path style="fill:#F8E99B;" d="M28.702,403.794h47.505c26.237,0,47.505-21.269,47.505-47.505v-47.505H76.207
	c-26.237,0-47.505,21.269-47.505,47.505C28.702,356.289,28.702,403.794,28.702,403.794z"/>
<circle style="fill:#797781;" cx="440.742" cy="361.567" r="63.34"/>
<circle style="fill:#DBDBDB;" cx="440.742" cy="361.567" r="21.113"/>
<rect x="240.165" y="319.34" style="fill:#F8E99B;" width="137.237" height="63.34"/>
<rect x="250.722" y="319.34" style="fill:#F6E27D;" width="126.68" height="63.34"/>
<path style="fill:#797781;" d="M240.165,337.814H124.041c-4.373,0-7.918-3.545-7.918-7.918s3.545-7.918,7.918-7.918h116.124
	c4.373,0,7.918,3.545,7.918,7.918S244.538,337.814,240.165,337.814z"/>
<g>
	<path style="fill:#2E2D31;" d="M440.742,332.536c-16.008,0-29.031,13.023-29.031,29.031s13.023,29.031,29.031,29.031
		s29.031-13.023,29.031-29.031S456.75,332.536,440.742,332.536z M440.742,374.763c-7.277,0-13.196-5.919-13.196-13.196
		s5.919-13.196,13.196-13.196s13.196,5.919,13.196,13.196S448.019,374.763,440.742,374.763z"/>
	<path style="fill:#2E2D31;" d="M504.082,416.99h-18.621C501.633,403.916,512,383.935,512,361.567
		c0-19.881-8.193-37.879-21.37-50.817c0.162-0.63,0.257-1.287,0.257-1.967V256c0-4.373-3.545-7.918-7.918-7.918h-14.932
		l-27.711-110.845h0.417c0.007-0.001,0.014-0.001,0.021,0c4.373,0,7.918-3.545,7.918-7.918c0-0.214-0.008-0.425-0.025-0.634
		c-0.342-27.358-22.703-49.51-50.14-49.51H292.948c-4.373,0-7.918,3.545-7.918,7.918v42.227c0,4.373,3.545,7.918,7.918,7.918h2.639
		v79.243c-20.984,0.353-40.519,2.106-58.062,5.051v-39.428c0-3.408-2.181-6.433-5.413-7.511l-31.67-10.557
		c-2.412-0.803-5.068-0.399-7.133,1.088c-2.065,1.488-3.288,3.879-3.288,6.424v62.745c-26.559,10.73-42.228,25.622-42.228,42.822
		v44.865h-16.164v-13.196c0-4.373-3.545-7.918-7.918-7.918H76.206c-30.561,0-55.423,24.862-55.423,55.423v39.588H7.918
		c-4.373,0-7.918,3.545-7.918,7.918s3.545,7.918,7.918,7.918h68.289c30.561,0,55.423-24.862,55.423-55.423v-18.474h16.164v2.639
		c0,1.224,0.286,2.377,0.781,3.412c-7.107,9.318-11.338,20.94-11.338,33.537c0,15.497,6.401,29.52,16.688,39.588h-8.771
		c-4.373,0-7.918,3.545-7.918,7.918s3.545,7.918,7.918,7.918h358.928c4.373,0,7.918-3.545,7.918-7.918
		S508.455,416.99,504.082,416.99z M76.207,395.876H36.619v-39.588c0-21.829,17.758-39.588,39.588-39.588h39.588v39.588
		C115.794,378.118,98.035,395.876,76.207,395.876z M496.165,361.567c0,30.561-24.862,55.423-55.423,55.423
		s-55.423-24.862-55.423-55.423s24.862-55.423,55.423-55.423S496.165,331.006,496.165,361.567z M248.082,327.258h87.068
		c0.008,0,0.018,0.002,0.025,0.002c0.008,0,0.018-0.002,0.026-0.002h34.282v2.639v44.866H248.082V327.258z M385.32,316.848v-10.703
		h10.703C392.089,309.325,388.5,312.913,385.32,316.848z M475.052,299.136c-10.185-5.619-21.878-8.826-34.309-8.826h-63.34
		c-4.373,0-7.918,3.545-7.918,7.918v13.196h-23.324l15.835-47.505h113.056V299.136z M300.866,95.01h97.649
		c16.194,0,29.804,11.278,33.387,26.392H300.866V95.01z M424.005,137.237l27.711,110.845h-95.427c-3.408,0-6.433,2.181-7.511,5.413
		l-19.309,57.927h-18.046V137.237H424.005z M205.856,182.532l15.835,5.278v36.52c0,0.102,0.012,0.202,0.016,0.304
		c-5.54,1.251-10.833,2.632-15.851,4.136V182.532z M163.628,277.113c0-10.323,13.834-21.492,37.004-29.879
		c24.915-9.016,58.391-14.25,94.955-14.911v36.872h-87.093c-4.373,0-7.918,3.545-7.918,7.918s3.545,7.918,7.918,7.918h87.093v26.392
		h-55.423c-4.373,0-7.918,3.545-7.918,7.918v2.639h-68.62V277.113z M153.072,377.402c0-21.829,17.758-39.588,39.588-39.588
		s39.588,17.758,39.588,39.588s-17.758,39.588-39.588,39.588S153.072,399.231,153.072,377.402z M231.394,416.99
		c7.268-7.113,12.589-16.202,15.088-26.392h129.209c4.627,10.328,11.635,19.36,20.332,26.392H231.394z"/>
</g>
</svg>